<?xml version="1.0" encoding="utf-8"?>
<!-- Generator: Adobe Illustrator 23.0.4, SVG Export Plug-In . SVG Version: 6.00 Build 0)  -->
<svg version="1.1" xmlns="http://www.w3.org/2000/svg" xmlns:xlink="http://www.w3.org/1999/xlink" x="0px" y="0px"
	 viewBox="0 0 910.5 929.8" style="enable-background:new 0 0 910.5 929.8;" xml:space="preserve" preserveAspectRatio="none">
<style type="text/css">
	.st0{fill:#293047;}
	.st1{fill:#FFFFFF;stroke:#000000;stroke-miterlimit:10;}
	.st2{clip-path:url(#SVGID_2_);fill:url(#SVGID_3_);}
	.st3{clip-path:url(#SVGID_2_);fill:url(#SVGID_4_);}
	.st4{clip-path:url(#SVGID_2_);fill:#293047;}
	.st5{clip-path:url(#SVGID_2_);fill:#0071E6;}
	.st6{clip-path:url(#SVGID_2_);fill:#0045BE;}
	.st7{clip-path:url(#SVGID_2_);}
	.st8{fill:#0045BE;}
	.st9{fill:#FFFFFF;}
	.st10{fill:#0C0A0E;}
	.st11{clip-path:url(#SVGID_2_);fill:#CB4728;}
	.st12{fill:#24191E;}
	.st13{fill:#CB4728;}
	.st14{clip-path:url(#SVGID_2_);fill:#983520;}
	.st15{fill:#1D1C1F;}
	.st16{fill:#3F11A5;}
	.st17{clip-path:url(#SVGID_2_);fill:#4C00F2;}
	.st18{clip-path:url(#SVGID_2_);fill:#0C0A0E;}
	.st19{clip-path:url(#SVGID_2_);fill:#DCDBCC;}
	.st20{clip-path:url(#SVGID_2_);fill:#2A1F1D;}
	.st21{clip-path:url(#SVGID_2_);fill:#24191E;}
	.st22{clip-path:url(#SVGID_2_);fill:#3F11A5;}
	.st23{fill:#CBE2FA;}
	.st24{fill:url(#SVGID_5_);}
</style>
<g id="background">
	<g id="Слой_4">
	</g>
</g>
<g id="Слой_5">
	<path class="st23" d="M0,0c14.6,14.3,33.9,33.6,55.7,57.4c32.9,35.9,49.7,54.4,65.8,81c19.7,32.6,29.6,61,33.7,74.2
		c2.4,7.5,9.6,31.5,13.5,64.1c4.1,34.2,2.3,60.3,0,92.8c-3.5,49.3-7.6,46-8.4,77.6c-0.7,24.8-1.4,60.2,11.8,101.2
		c12.4,38.7,31.2,64,48.9,87.7c25,33.7,48.2,54.3,72.6,75.9c23.7,21.1,65.4,55.3,123.2,87.9c13.5,7.6,35.6,19.5,64.1,32
		c35.9,15.7,63,24.1,99.6,35.4c42.8,13.2,79.3,22.5,106.3,28.7c49.3,11.4,88,17.7,104.6,20.2c34.1,5.3,75,10.3,121.6,13.5L908,0L0,0
		z"/>
	<linearGradient id="SVGID_2_" gradientUnits="userSpaceOnUse" x1="775.1874" y1="-78.1281" x2="310.7057" y2="726.3779">
		<stop  offset="0.468" style="stop-color:#0071E6"/>
		<stop  offset="1" style="stop-color:#0045BE"/>
	</linearGradient>
	<path style="fill:url(#SVGID_2_);" d="M15.2,0c35.9,27.3,62.4,54.5,81,76c16.2,18.8,38.4,44.8,59.1,84.4
		c10.3,19.8,24.4,47.2,32.1,86.1c5.4,27.3,5.2,48.2,5.1,72.6c-0.3,39-4.6,45.1-8.4,99.6c-3.1,43.7-4.5,66.1,0,92.8
		c1.3,7.4,6.3,35.5,21.9,69.2c5.7,12.3,22.9,47.2,74.2,99.6c66.7,68,132.2,105.7,158.6,119.9c41.9,22.6,74.7,34.5,109.7,47.1
		c78.3,28.4,140.6,40.7,192.4,50.6c44.7,8.6,103.1,17.9,172.2,23.6L910.5,0L15.2,0z"/>
</g>
<g id="illustration">
</g>
<g id="text">
</g>
</svg>
