<?xml version="1.0" encoding="utf-8"?>
<!-- Generator: Adobe Illustrator 23.0.4, SVG Export Plug-In . SVG Version: 6.00 Build 0)  -->
<svg version="1.1" xmlns="http://www.w3.org/2000/svg" xmlns:xlink="http://www.w3.org/1999/xlink" x="0px" y="0px"
	 viewBox="0 0 1366 941.4" style="enable-background:new 0 0 1366 941.4;" xml:space="preserve" preserveAspectRatio="none">
<style type="text/css">
	.st0{display:none;}
	.st1{display:inline;fill:#293047;}
	.st2{font-family:'Lato-Light';}
	.st3{font-size:30.3317px;}
	.st4{display:inline;fill:#FFFFFF;stroke:#000000;stroke-miterlimit:10;}
	.st5{clip-path:url(#SVGID_2_);fill:url(#SVGID_3_);}
	.st6{clip-path:url(#SVGID_2_);fill:url(#SVGID_4_);}
	.st7{clip-path:url(#SVGID_2_);fill:#293047;}
	.st8{clip-path:url(#SVGID_2_);fill:#0071E6;}
	.st9{clip-path:url(#SVGID_2_);fill:#0045BE;}
	.st10{clip-path:url(#SVGID_2_);}
	.st11{fill:#0045BE;}
	.st12{fill:#FFFFFF;}
	.st13{fill:#0C0A0E;}
	.st14{clip-path:url(#SVGID_2_);fill:#CB4728;}
	.st15{fill:#24191E;}
	.st16{fill:#CB4728;}
	.st17{clip-path:url(#SVGID_2_);fill:#983520;}
	.st18{fill:#1D1C1F;}
	.st19{fill:#3F11A5;}
	.st20{clip-path:url(#SVGID_2_);fill:#4C00F2;}
	.st21{clip-path:url(#SVGID_2_);fill:#0C0A0E;}
	.st22{clip-path:url(#SVGID_2_);fill:#DCDBCC;}
	.st23{clip-path:url(#SVGID_2_);fill:#2A1F1D;}
	.st24{clip-path:url(#SVGID_2_);fill:#24191E;}
	.st25{clip-path:url(#SVGID_2_);fill:#3F11A5;}
</style>
<g id="background">
	<g class="st0">
		<path class="st1" d="M217.3,302.7v116.4H233v26.9h-15.7v37.2h-34.2v-37.2h-59.4v-26.9l55.5-116.4H217.3z M183.1,419.2v-74.4h-0.5
			l-33.8,74.4H183.1z"/>
		<path class="st1" d="M252.1,351.7c0-38.9,18.6-52.6,49.7-52.6c30.8,0,49.4,13.7,49.4,52.6v82.4c0,38.9-18.6,52.8-49.7,52.8
			c-30.8,0-49.4-13.9-49.4-52.8V351.7z M286.3,434.1c-1,20.5,6.1,25.9,14.9,25.9c9.1,0,16.6-5.4,15.7-25.9v-82.4
			c1-20.3-6.6-25.7-15.7-25.7c-8.8,0-15.9,5.4-14.9,25.7V434.1z"/>
		<path class="st1" d="M461.9,302.7v116.4h15.7v26.9h-15.7v37.2h-34.2v-37.2h-59.4v-26.9l55.5-116.4H461.9z M427.7,419.2v-74.4h-0.5
			l-33.8,74.4H427.7z"/>
	</g>
	<g class="st0">
		<path class="st1" d="M241,241c0.1-10.8,0.2-17.8,11.2-17.8c10.8,0,10.9,7,10.9,17.8c0.1,11-1.5,15.7-10.9,15.5
			C242.6,256.7,241,252,241,241z M248.3,245.4c0,3.9,0.3,5.6,3.9,5.6c3.4,0,3.6-1.7,3.6-5.6v-10.6c0-3,0-6-3.6-6c-3.9,0-3.9,3-3.9,6
			V245.4z"/>
		<path class="st1" d="M269.1,241c0.1-10.8,0.2-17.8,11.2-17.8c10.8,0,10.9,7,10.9,17.8c0.1,11-1.5,15.7-10.9,15.5
			C270.7,256.7,269,252,269.1,241z M276.4,245.4c0,3.9,0.3,5.6,3.9,5.6c3.4,0,3.6-1.7,3.6-5.6v-10.6c0-3,0-6-3.6-6
			c-3.9,0-3.9,3-3.9,6V245.4z"/>
		<path class="st1" d="M304.7,227.3h0.1c1.3-3.1,3.3-4.2,6.3-4.2c4.7,0.1,7.4,2.6,7.6,11.3V246c-0.2,5.1-1.4,10.6-7.6,10.6
			c-2.9-0.2-4.9-0.9-6.7-4.1h-0.1v13.9h-7V224h7.3V227.3z M304.7,245.3c0,3.6,1.2,5.6,3.5,5.6c2.2,0,3-2.4,3.2-5.4v-10.6
			c-0.2-3.1,0.1-6.1-3.3-6.1c-3.4,0-3.5,4.5-3.4,7V245.3z"/>
		<path class="st1" d="M331.2,245.3c-0.6,5.8,1.7,5.7,3.4,5.7c2.1,0,3.5-1.5,3-3.5c-0.1-1.8-2.2-2.8-3.6-3.8l-4-2.7
			c-3.6-2.5-6-5.4-6-10c0-4.9,3.9-7.7,10.9-7.7c7.1,0,10.3,3.7,10.2,10.5h-7.3c0.2-3.5-0.8-4.9-3.4-4.9c-1.7,0-3.1,0.8-3.1,2.6
			c0,1.9,1.3,2.7,2.8,3.6l5.9,4c1.9,1.1,4.8,4.1,5,6.2c0.6,5.5-0.7,11.2-10.8,11.2c-3.9,0-11.1-1.6-10.3-11.3H331.2z"/>
		<path class="st1" d="M352.8,213.6h7.3v11.8c0.2,3.2-0.1,6.5-0.3,9.7c-0.3,3.3-0.6,6.5-0.8,9.7h-4.8c-0.2-3.3-0.6-6.5-0.8-9.7
			c-0.3-3.3-0.6-6.5-0.5-9.7V213.6z M352.9,255.7v-7.4h7.3v7.4H352.9z"/>
	</g>
	<text transform="matrix(1 0 0 1 129.5535 563.847)" class="st0"><tspan x="0" y="0" class="st1 st2 st3">It looks like you can’t move</tspan><tspan x="110.1" y="36.4" class="st1 st2 st3">forward...</tspan></text>
	<g class="st0">
		<path class="st4" d="M245,681.8h5.2c2.6,0,3.3,2,3.3,3.3c0,1.9-0.9,2.4-1.3,2.7c1.3,0.6,1.7,1.9,1.7,3.2c0,1-0.4,2-0.9,2.7
			c-0.6,0.7-1.2,1.2-3.4,1.2H245V681.8z M247.2,686.9h2.6c0.9,0,1.6-0.4,1.6-1.5c0-1.1-0.6-1.4-1.6-1.4h-2.6V686.9z M247.2,692.6
			h2.7c1.1,0,1.7-0.6,1.7-1.9c0-1.1-0.8-1.6-1.6-1.6h-2.8V692.6z"/>
		<path class="st4" d="M256.8,694.8h-2.4l3.8-13.1h2.6l3.8,13.1h-2.4l-0.7-2.7h-4L256.8,694.8z M258.1,689.9h2.7l-1.3-5.2h0
			L258.1,689.9z"/>
		<path class="st4" d="M272.1,686.1c-0.2-0.8-0.5-2.3-2.4-2.3c-1.1,0-2.7,0.9-2.7,4.6c0,2.3,0.8,4.5,2.7,4.5c1.2,0,2.1-0.9,2.4-2.5
			h2.2c-0.4,2.8-2,4.8-4.7,4.8c-2.8,0-4.9-2.3-4.9-6.9c0-4.6,2.2-6.9,4.9-6.9c3.2,0,4.5,2.7,4.6,4.6H272.1z"/>
		<path class="st4" d="M278.5,694.8h-2.2v-13.1h2.2v5.3l4.1-5.3h2.9l-4.4,5.3l4.6,7.7h-2.9l-3.3-5.7l-1,1.3V694.8z"/>
		<path class="st4" d="M293.7,694.8h-2.2v-10.7h-3.2v-2.3h8.7v2.3h-3.2V694.8z"/>
		<path class="st4" d="M302.2,681.4c1.4,0,5.1,0.7,5.1,6.9c0,6.1-3.7,6.9-5.1,6.9c-1.4,0-5.1-0.7-5.1-6.9
			C297.1,682.2,300.8,681.4,302.2,681.4z M302.2,692.9c1.2,0,2.9-0.9,2.9-4.6c0-3.7-1.7-4.6-2.9-4.6s-2.9,0.9-2.9,4.6
			C299.3,692,301,692.9,302.2,692.9z"/>
		<path class="st4" d="M315.4,689v5.9h-2.2v-13.1h2.2v4.9h4.2v-4.9h2.2v13.1h-2.2V689H315.4z"/>
		<path class="st4" d="M328.7,681.4c1.4,0,5.1,0.7,5.1,6.9c0,6.1-3.7,6.9-5.1,6.9c-1.4,0-5.1-0.7-5.1-6.9
			C323.6,682.2,327.3,681.4,328.7,681.4z M328.7,692.9c1.2,0,2.9-0.9,2.9-4.6c0-3.7-1.7-4.6-2.9-4.6s-2.9,0.9-2.9,4.6
			C325.8,692,327.5,692.9,328.7,692.9z"/>
		<path class="st4" d="M345.9,694.8h-2.1v-10.9h0l-2,10.9h-2.2l-2-10.9h0v10.9h-2.1v-13.1h3.3l1.9,10.3h0l1.9-10.3h3.2V694.8z"/>
		<path class="st4" d="M355.9,684.1h-5.7v2.7h5.2v2.3h-5.2v3.4h5.9v2.3h-8.1v-13.1h7.9V684.1z"/>
	</g>
	<g>
		<defs>
			<rect id="SVGID_1_" width="1366" height="939.9"/>
		</defs>
		<clipPath id="SVGID_2_">
			<use xlink:href="#SVGID_1_"  style="overflow:visible;"/>
		</clipPath>
		<linearGradient id="SVGID_3_" gradientUnits="userSpaceOnUse" x1="548.3407" y1="460.7528" x2="1364.86" y2="460.7528">
			<stop  offset="0" style="stop-color:#C5DBFF"/>
			<stop  offset="1" style="stop-color:#BEC4CE"/>
		</linearGradient>
		<path class="st5" d="M1111.6-18.4c0,0-31.4,30.3-41.9,77.7c0,0-19.7,95.2-127.3,89.2c0,0-123.3-8.1-153.4,0.3
			c0,0-24.6,2.2-45.6,14.5c-4.6,2.7-9,5.9-13,9.6c-81.8-36.6-128.5,2.9-130.3,4.4c0,0-0.1,0.1-0.1,0.1
			c-90.3,57.6-34.6,171-33.5,173.2c0,0,0,0,0,0.1c8.2,20.6,35.6,50.1,36.7,51.2c0,0,0,0,0.1,0.1c13.9,12.5,47.5,59,49.3,61.4
			c0.1,0.1,0.1,0.1,0.1,0.2c24.2,54.7,16.2,119.6,11,147.5c-1.5,7.9-2.5,26-2,31.6c5.9,60.1,37.2,89.9,63.9,104.6
			c-9.5,8.1-36.7,33.8-56.1,77.6c0,0-25.9,58.4,6.2,115h689.3V579.1V351.6v-370H1111.6z"/>
		<linearGradient id="SVGID_4_" gradientUnits="userSpaceOnUse" x1="1530.6261" y1="284.5582" x2="622.1437" y2="809.0708">
			<stop  offset="0" style="stop-color:#0071E6"/>
			<stop  offset="1" style="stop-color:#0045BE"/>
		</linearGradient>
		<path class="st6" d="M1363.5-5v941.4H695.7c-31.1-55.5-6-112.9-6-112.9c23.2-53,57.8-79,57.8-79c2.9-2.2,6.1-4.4,9.6-6.7
			c34.2-21.7,93.7-43.3,93.7-43.3c62.2-26.2,84.5-77.8,84.5-77.8c32.9-54.6,15.3-97.7,15.3-97.7l-217.8-294
			c-1.7-26,12.4-41.9,28.5-51.5c20.4-12.1,44.2-14.3,44.2-14.3c29.2-8.2,148.7-0.3,148.7-0.3c104.2,5.9,123.3-87.6,123.3-87.6
			c10.2-46.5,40.6-76.3,40.6-76.3H1363.5z"/>
		<path class="st7" d="M1144.6,596.2c10.6,0.4,24,0.9,40.6,1.5c7.9,0.6,12.8,1.1,13.5,1.2c-1.8-0.1-37.5-1.5-63.1-2.6
			C1138.6,596.2,1141.6,596.1,1144.6,596.2z"/>
		<path class="st8" d="M1363.5,358.5V582c0,0.3-0.1,0.6-0.4,0.9c-20.8,18.7-65.6,34.7-159.5,31.2c-6.4-0.2-12.4-0.5-18-0.7
			c-9.8-0.7-24.2-1.5-40.6-1.5c-25.8-0.9-33.8,1-35.2,1.1c-31.9,2.3-65.2,8.4-86.2,22.8c0,0-44,27-62.4,44.9
			c0,0-106.9,101.8-178,80.1c-0.1,0-0.1,0-0.2,0c-1.1-0.1-11.8-1.5-26-7.3c-27.6-11.3-68.2-39.6-74.9-109
			c-0.5-5.5,0.5-23.4,1.9-31.1c5-27.4,12.7-91.2-10.7-144.9c0-0.1-0.1-0.1-0.1-0.2c-1.7-2.4-34.3-48-47.8-60.4c0,0,0,0-0.1-0.1
			c-1-1.1-27.6-30.1-35.5-50.3c0,0,0,0,0-0.1c-1.1-2.2-55.1-113.6,32.4-170.2c0,0,0.1-0.1,0.1-0.1c1.8-1.6,51.8-44.5,138.8,1.8
			c13,6.9,26.8,15.8,41.4,27.2c0,0,121,98.2,244.2,31.2c0,0,148.9-69.9,200.5,34.6c0,0,0,0.1,0.1,0.1c1.3,2,44.9,69.5,115.1,75.2
			C1363,357.4,1363.5,357.9,1363.5,358.5z"/>
		<path class="st9" d="M1259.2,600.8H737.1c-1.9,0-3.4-1.5-3.4-3.4v0c0-1.9,1.5-3.4,3.4-3.4h522.1c1.9,0,3.4,1.5,3.4,3.4v0
			C1262.7,599.3,1261.1,600.8,1259.2,600.8z"/>
		<g class="st10">
			<g>
				<g>
					<path class="st11" d="M931.5,427.5h-13.3c-2.1-0.1-3.8-1.8-3.8-3.9c0-1.5,0.9-2.9,2.2-3.5l26.3,0c3.4,0,6.2-2.8,6.2-6.2
						c0-3.4-2.8-6.2-6.2-6.2H930c-1.7-0.4-3.1-1.9-3.1-3.8c0-1.5,0.9-2.8,2.1-3.5l13.8,0c3.4,0,6.2-2.8,6.2-6.2
						c0-3.4-2.8-6.2-6.2-6.2h-22.2c-4.2-0.2-7.5-3.6-7.5-7.8l0,0c0-4.3,3.4-7.7,7.6-7.9l22.1,0c3.4,0,6.2-2.8,6.2-6.2
						c0-3.4-2.8-6.2-6.2-6.2h-56.6c-3.7-0.3-6.7-3.4-6.7-7.2c0-3.9,3.1-7.1,7-7.2l11.5,0c4.8,0,8.7-3.9,8.7-8.7
						c0-4.8-3.9-8.7-8.7-8.7h-43.4c-2.4-0.1-4.3-2.1-4.3-4.5l0,0c0-2.4,1.9-4.4,4.3-4.5l2.8,0c2.5,0,4.5-2,4.5-4.5
						c0-2.5-2-4.5-4.5-4.5l-66.5,0c-2.5,0-4.5,2-4.5,4.5l0,0c0,2.5,2,4.5,4.5,4.5h8.7c2.4,0.1,4.3,2.1,4.3,4.5
						c0,2.4-1.9,4.4-4.3,4.5l-48.3,0c-4.8,0-8.7,3.9-8.7,8.7l0,0c0,4.8,3.9,8.7,8.7,8.7l39.5,0c3.9,0.2,7,3.3,7,7.2
						c0,3.8-2.9,6.9-6.7,7.2H786c-3.4,0-6.2,2.8-6.2,6.2c0,3.4,2.8,6.2,6.2,6.2l38.7,0c4.2,0.1,7.6,3.6,7.6,7.9
						c0,4.2-3.3,7.7-7.5,7.8h-11.6c-3.4,0-6.2,2.8-6.2,6.2c0,2.6,1.7,4.9,4,5.8h-8.4c-2.2,0-3.9,1.7-3.9,3.9c0,2.2,1.7,3.9,3.9,3.9
						h22c3.3,0.1,6,2.9,6,6.2l0,0c0,2.6-1.6,4.8-4,5.8l-36.6,0c-2.2,0-3.9,1.7-3.9,3.9c0,2.2,1.7,3.9,3.9,3.9l57,0
						c-3.4,0.1-6.1,2.8-6.1,6.2c0,3.4,2.8,6.2,6.2,6.2l84.3,0c3.4,0,6.2-2.8,6.2-6.2C937.7,430.3,934.9,427.5,931.5,427.5z"/>
					<path class="st11" d="M973,433.7c0-3.4-2.8-6.2-6.2-6.2h-14.2c-3.4,0-6.2,2.8-6.2,6.2l0,0c0,3.4,2.8,6.2,6.2,6.2l14.2,0
						C970.2,440,973,437.2,973,433.7z"/>
					<path class="st11" d="M791,297c0-2.4-1.9-4.3-4.3-4.3h-32.6c-2.4,0-4.3,1.9-4.3,4.3c0,2.4,1.9,4.3,4.3,4.3l32.6,0
						C789.1,301.3,791,299.4,791,297z"/>
					<path class="st11" d="M881.8,456.5l-32.6,0c-2.4,0-4.3,1.9-4.3,4.3c0,2.4,1.9,4.3,4.3,4.3h32.6c2.4,0,4.3-1.9,4.3-4.3
						C886.1,458.4,884.2,456.5,881.8,456.5z"/>
				</g>
			</g>
			<path class="st11" d="M958.3,504.7H765.3c-3.9,0-7.1-3.2-7.1-7.1l0,0c0-3.9,3.2-7.1,7.1-7.1l193.1,0c3.9,0,7.1,3.2,7.1,7.1l0,0
				C965.4,501.5,962.2,504.7,958.3,504.7z"/>
			<path class="st11" d="M865.1,527.9H668.3c-2.9,0-5.2-2.3-5.2-5.2l0,0c0-2.9,2.3-5.2,5.2-5.2h196.9c2.9,0,5.2,2.3,5.2,5.2l0,0
				C870.3,525.6,868,527.9,865.1,527.9z"/>
			<path class="st11" d="M823,546.2l-196.9,0c-2.9,0-5.2-2.3-5.2-5.2l0,0c0-2.9,2.3-5.2,5.2-5.2l196.9,0c2.9,0,5.2,2.3,5.2,5.2l0,0
				C828.2,543.8,825.9,546.2,823,546.2z"/>
			<path class="st11" d="M852.6,546.2h-11.7c-2.9,0-6.2-2.3-6.2-5.2l0,0c0-2.9,3.3-5.2,6.2-5.2h11.7c2.9,0,5.2,2.3,5.2,5.2l0,0
				C857.8,543.8,855.5,546.2,852.6,546.2z"/>
			<path class="st11" d="M838.3,569.6h-95.7c-3.7,0-6.6-3-6.6-6.6l0,0c0-3.7,3-6.6,6.6-6.6h95.7c3.7,0,6.6,3,6.6,6.6l0,0
				C845,566.6,842,569.6,838.3,569.6z"/>
		</g>
		<g class="st10">
			<g>
				<path class="st12" d="M1182.6,512.3c0.2,3.6-2.6,6.7-6.3,6.9c-3.6,0.2-6.7-2.6-6.9-6.3s2.6-6.7,6.3-6.9
					C1179.4,505.8,1182.5,508.6,1182.6,512.3z"/>
			</g>
			<g>
				<g>
					<path class="st13" d="M1172.9,433c-43.9,2-77.8,39.1-75.8,83c2,43.9,39.1,77.8,83,75.8s77.8-39.1,75.8-83
						C1253.9,465,1216.7,431,1172.9,433z M1179.7,584.1c-39.6,1.8-73.1-28.9-74.9-68.4s28.9-73.1,68.4-74.9
						c39.6-1.8,73.1,28.9,74.9,68.4C1249.9,548.8,1219.3,582.3,1179.7,584.1z"/>
				</g>
			</g>
		</g>
		<polygon class="st14" points="1045.3,325.9 1042.3,326.3 1038.8,324.7 1026.1,353.5 1029.6,355 1055.8,377 1070.8,367.2 
			1076.3,369.6 1086.6,352.2 1077.2,334.8 		"/>
		<g class="st10">
			<path class="st15" d="M1037.5,337.1l2.5,1.1l13.9-6.8l6.6,4.2l-19.4,29.1l4.7,3.9l28.9-30.4l11.9,14l12.7-3.6
				c0,0-0.7-17-10.5-24.6c-9.8-7.6-25.4-21.3-43.5,1.9l-3,0.4L1037.5,337.1z"/>
		</g>
		<g class="st10">
			<g>
				<path class="st16" d="M949.2,417.2l12.3,5l-38,59.9l12.3,5.2l58.6-58.1c0,0,9.4-11.2,2.4-18.2c-7-7-27.3-22.3-27.3-22.3
					L949.2,417.2z"/>
			</g>
		</g>
		<polygon class="st17" points="956.5,407 949.2,417.2 961.5,422.3 923.5,482.1 930.8,485.2 979.1,422.7 		"/>
		<g class="st10">
			<polygon class="st12" points="879,558.4 815.8,540.4 824.5,530 823.5,524.9 815.5,519.7 816.1,518.8 824.4,524.3 825.7,530.3 
				817.7,539.8 879.3,557.4 			"/>
		</g>
		<g class="st10">
			
				<rect x="869.6" y="466.3" transform="matrix(0.1408 -0.99 0.99 0.1408 242.5726 1299.7338)" class="st12" width="1" height="87.7"/>
		</g>
		<g class="st10">
			<g>
				
					<rect x="929.4" y="536.2" transform="matrix(0.1647 -0.9863 0.9863 0.1647 241.0858 1372.7451)" class="st12" width="3.1" height="15.7"/>
			</g>
			<g>
				
					<rect x="920.3" y="542.5" transform="matrix(0.9981 -6.133789e-02 6.133789e-02 0.9981 -32.0794 57.5842)" class="st12" width="3.1" height="17.6"/>
			</g>
			<g>
				
					<rect x="901.7" y="543.8" transform="matrix(0.9016 -0.4325 0.4325 0.9016 -146.2691 447.5723)" class="st12" width="18.3" height="3.1"/>
			</g>
			<g>
				
					<rect x="910.4" y="525.5" transform="matrix(0.8416 -0.5402 0.5402 0.8416 -143.4526 577.0886)" class="st12" width="3.1" height="15.1"/>
			</g>
			<g>
				
					<rect x="884.6" y="539.3" transform="matrix(0.509 -0.8607 0.8607 0.509 -14.7769 1056.8722)" class="st12" width="68.8" height="4.2"/>
			</g>
			<g>
				<path class="st12" d="M917.3,561.1c-11.1-1.5-19-11.7-17.5-22.8c1.5-11.1,11.7-19,22.8-17.5c11.1,1.5,19,11.7,17.5,22.8
					C938.7,554.7,928.4,562.6,917.3,561.1z M922.3,522.9c-10-1.3-19.1,5.7-20.4,15.7c-1.3,10,5.7,19.1,15.7,20.4
					c10,1.3,19.1-5.7,20.4-15.7S932.3,524.2,922.3,522.9z"/>
			</g>
			<g>
				<path class="st12" d="M916.5,567.3c-14.5-1.9-24.8-15.3-22.9-29.8c1.9-14.5,15.3-24.8,29.8-22.9c14.5,1.9,24.8,15.3,22.9,29.8
					C944.4,559,931,569.2,916.5,567.3z M923.1,516.7c-13.4-1.8-25.7,7.7-27.5,21.1c-1.8,13.4,7.7,25.7,21.1,27.5
					c13.4,1.8,25.7-7.7,27.5-21.1C946,530.8,936.5,518.5,923.1,516.7z"/>
			</g>
			<g>
				
					<rect x="906.4" y="518.4" transform="matrix(1 -2.682567e-03 2.682567e-03 1 -1.3975 2.4376)" class="st12" width="3.1" height="7.4"/>
			</g>
			<g>
				
					<rect x="901.9" y="522.2" transform="matrix(0.1298 -0.9915 0.9915 0.1298 264.4977 1353.662)" class="st12" width="3.1" height="7.9"/>
			</g>
			<g>
				<polygon class="st12" points="901,556.9 898.1,555.6 900.4,550.3 894.7,548.5 895.6,545.5 904.7,548.3 				"/>
			</g>
			<g>
				<polygon class="st12" points="919.5,567.4 916.9,565.6 922.2,557.6 928.8,564.2 926.6,566.4 922.7,562.6 				"/>
			</g>
			<g>
				<polygon class="st12" points="941.4,553.5 936.4,545.7 944.6,539.8 946.4,542.3 940.7,546.5 944,551.8 				"/>
			</g>
		</g>
		<g class="st10">
			<circle class="st12" cx="819.8" cy="510.5" r="10.9"/>
		</g>
		<g class="st10">
			<circle class="st12" cx="823.5" cy="528.5" r="3.9"/>
		</g>
		<g class="st10">
			<path class="st12" d="M821.9,540.8c-0.3,2.2-2.3,3.7-4.4,3.4c-2.2-0.3-3.7-2.3-3.4-4.4c0.3-2.2,2.3-3.7,4.4-3.4
				C820.6,536.7,822.1,538.6,821.9,540.8z"/>
		</g>
		<g class="st10">
			<path class="st12" d="M1098.7,423.5c0,0,7.9,8.2,5.6,17.5s-4.6,12.8-1.4,16.7c0,0-1.1,2.4-2.5-0.3c-1.4-2.7-2.3-6-0.4-11.4
				c1.9-5.4,1.8-10.9-0.4-12.1c-2.2-1.2-4.3-0.7-4.3-0.7S1093.5,426,1098.7,423.5z"/>
		</g>
		<g class="st10">
			<path class="st18" d="M1081.9,423.7c0,0,6,2.5,8.8,0.1c2.8-2.4,3.8-6,3.8-6l4.3,5.7c0,0-3.9,5.7-3.3,9.7c0,0-6.8-0.1-8.7,2.4
				C1086.8,435.6,1079.5,429.7,1081.9,423.7z"/>
		</g>
		<g class="st10">
			<path class="st12" d="M1029,409.7l33.7,4.4c0,0,23.1,4.2,23.7,19.7c0.6,15.6-5.7,24.4-21.3,25l-11.9-0.2c0,0-2.6-4.4,0.8-5.9
				c0,0,22.2,2.2,24.7-10c2.5-12.2-3.9-17.2-10.8-19.9c-6.9-2.7-30.6-4.5-30.6-4.5L1029,409.7z"/>
		</g>
		<g class="st10">
			<polygon class="st12" points="935.8,487.3 931.5,494.4 919.1,489 923.5,482.1 			"/>
		</g>
		<g class="st10">
			<path class="st13" d="M931.5,494.4l13.2,19.9c0,0,0.9,5.2-4,3.7l-26.3-21.5l4.8-7.5L931.5,494.4z"/>
		</g>
		<g class="st10">
			<g>
				<polygon class="st19" points="910.1,424.6 1033.6,436.7 1032.6,429.7 905,413 				"/>
			</g>
			<g>
				<path class="st19" d="M897.9,415.2l-78.1,93.4c0,0-3.8,4.5,1.1,5.7c4.9,1.2,94.5,30.3,94.5,30.3l-2.4-8.5l-88.1-26.3l75.8-87.1
					L897.9,415.2z"/>
			</g>
			<g>
				<polygon class="st19" points="912.8,537.5 901.6,426.1 910.1,424.6 922.5,548.5 915.4,544.6 				"/>
			</g>
			<g>
				<polygon class="st19" points="921.3,535.7 1036.7,447.1 1038.2,456.1 922.5,548.5 				"/>
			</g>
			<g>
				<path class="st19" d="M1033.6,436.7l9.7,63.1c0,0,11,35,26.9,44.5c0,0,2.2,1.1,3.6-1.1c0,0-0.9-3.3-3.2-3.9
					c0,0-15.4-15.4-18.8-34.8c-3.4-19.4-9.4-65.6-9.4-65.6l-0.9-8l-8.8-1.2L1033.6,436.7z"/>
			</g>
		</g>
		<g class="st10">
			<g>
				<path class="st13" d="M830.3,431.7c-43.5-5.7-83.5,25-89.2,68.5c-5.7,43.5,25,83.5,68.5,89.2c43.5,5.7,83.5-25,89.2-68.5
					C904.5,477.4,873.8,437.4,830.3,431.7z M810.6,581.7c-39.3-5.1-67-41.2-61.8-80.4s41.2-67,80.4-61.8c39.3,5.1,67,41.2,61.8,80.4
					S849.9,586.8,810.6,581.7z"/>
			</g>
		</g>
		<g class="st10">
			<path class="st16" d="M901.6,426.1l10.3,28.5l-32.4,71.9l12.3,5l41.4-64.3c0,0,7.8-8.8,6.6-20c-1.2-11.2-3.5-27-3.5-27
				L901.6,426.1z"/>
		</g>
		<path class="st20" d="M883.2,362.2l126.1,13.7l-2,15.6l22.7,1.2l8.9-68.2c0,0-38.4-21.6-84.6-20.9
			C908,304.2,886.7,338,883.2,362.2z"/>
		<g class="st10">
			<polygon class="st16" points="1009.3,391.7 1005.5,420.8 1069,452 1077.8,457.8 1082.3,458.3 1088.7,438.8 1068,435.7 
				1027.8,408.9 1029.9,392.7 			"/>
		</g>
		<g class="st10">
			<polygon class="st18" points="883.2,362.2 901.6,426.1 937.8,420 935.9,409.8 949.2,417.2 970.9,386.7 943.2,368.7 			"/>
		</g>
		<g class="st10">
			<path class="st13" d="M887.8,541l17.4,31.3c0,0-0.7,4.3-4.3,1.9L866.8,545l6.9-9.5L887.8,541z"/>
		</g>
		<g class="st10">
			<polygon class="st12" points="891.1,531.2 887.8,541 873.7,535.5 879.5,526.4 			"/>
		</g>
		<polygon class="st21" points="956.5,407 929.3,388 935.9,409.8 949.2,417.2 		"/>
		<polygon class="st22" points="930.8,485.2 923.5,482.1 919.1,489 925.6,491.8 		"/>
		<polygon class="st21" points="914.3,496.4 919.1,500.3 925.6,491.8 919.1,489 		"/>
		<polygon class="st23" points="883.2,362.2 1009.2,375.9 1013.1,353 		"/>
		<polygon class="st24" points="1042.3,326.3 1035.5,359.9 1034.3,359 1038.9,324.5 		"/>
		<path class="st20" d="M1044.3,317.2l14.1,17.2c0,0,8-0.7,16.4,7.8c8.4,8.5,18.2,18.5,18.2,18.5s17.9-23,1.2-42.7
			C1077.4,298.4,1049.5,309.4,1044.3,317.2z"/>
		<path class="st25" d="M1071.3,339.2c1.1,0.8,2.3,1.8,3.4,3c8.4,8.5,18.2,18.5,18.2,18.5s10.1-13,8.1-27.7L1071.3,339.2z"/>
	</g>
</g>
<g id="illustration">
</g>
<g id="text">
</g>
</svg>
